<svg width="549" height="549" viewBox="0 0 549 549" fill="none" xmlns="http://www.w3.org/2000/svg">
<g clip-path="url(#clip0_1601_1923)">
<path fill-rule="evenodd" clip-rule="evenodd" d="M472.929 131.385C472.898 128.871 472.09 126.393 470.363 124.425L364.656 3.667C364.642 3.6542 364.629 3.64413 364.616 3.63464L364.615 3.63454C364.599 3.62256 364.584 3.61149 364.572 3.597C363.942 2.888 363.207 2.313 362.43 1.802C362.199 1.653 361.967 1.512 361.726 1.382C361.054 1.012 360.35 0.715 359.605 0.494C359.523 0.470262 359.445 0.441834 359.368 0.413652L359.367 0.41352C359.256 0.372889 359.146 0.332784 359.028 0.308C358.231 0.113 357.4 0 356.561 0H96.7569C84.9039 0 75.2549 9.644 75.2549 21.502V526.79C75.2549 538.644 84.9039 548.291 96.7569 548.291H451.532C463.385 548.291 473.035 538.644 473.035 526.79V132.59C473.036 132.293 473.001 132 472.965 131.705L472.965 131.705C472.953 131.599 472.94 131.492 472.929 131.385ZM187.278 515.219L177.63 483.115H141.818L132.917 515.219H103.594L141.818 390.136H178.932L217.714 515.219H187.278ZM312.749 457.875C303.091 466.967 288.803 471.05 272.097 471.05C268.395 471.05 265.052 470.862 262.45 470.494V515.208H234.427V391.805C243.152 390.33 255.404 389.218 272.653 389.218C290.1 389.218 302.537 392.55 310.888 399.229C318.861 405.538 324.237 415.933 324.237 428.19C324.245 440.427 320.161 450.82 312.749 457.875ZM411.669 515.219L381.044 461.213L370.282 474.39V515.219H342.261V390.136H370.282V445.439H370.839C372.773 442.09 374.794 438.921 376.782 435.803C377.658 434.43 378.527 433.066 379.38 431.702L407.775 390.137H442.472L401.09 443.399L444.697 515.21H411.669V515.219ZM275.005 365.076L275.614 364.468C282.868 357.197 282.868 345.308 275.604 338.036C268.333 330.772 256.442 330.775 249.175 338.036L222.133 365.076H208.915L242.563 331.428L123.633 212.497L96.7559 239.374V226.166L117.021 205.888C124.299 198.618 124.299 186.725 117.021 179.457C111.548 173.993 103.517 172.757 96.7559 175.522V21.502H345.81V131.508C345.81 137.443 350.629 142.259 356.561 142.259H451.533V365.075L275.005 365.076ZM262.449 411.663C264.497 411.113 268.394 410.552 274.145 410.552C288.245 410.552 296.224 417.414 296.225 428.919C296.225 441.728 286.954 449.339 271.92 449.339C267.835 449.339 264.862 449.15 262.449 448.594V411.663ZM159.081 411.292H159.446C159.758 412.541 160.081 413.842 160.413 415.179C162.053 421.785 163.904 429.245 165.76 435.417L173.551 461.958H145.905L153.328 435.417C154.539 431.118 155.686 426.024 156.809 421.039C157.573 417.644 158.327 414.299 159.081 411.292ZM266.631 231.297L291.425 223.478C292.643 223.09 293.978 223.783 294.341 224.998C294.74 226.223 294.052 227.541 292.834 227.927L268.401 235.635C278.644 262.819 274.325 294.239 255.414 317.841L137.207 199.642C160.812 180.737 192.232 176.408 219.413 186.655L227.122 162.23C227.51 161.005 228.82 160.316 230.051 160.703C231.276 161.089 231.959 162.406 231.573 163.632L223.751 188.436C232.979 192.52 241.625 198.325 249.171 205.882C256.728 213.436 262.544 222.079 266.631 231.297ZM180.128 222.069C185.419 227.358 193.996 227.358 199.288 222.074C204.583 216.78 204.583 208.206 199.299 202.905C193.997 197.616 185.409 197.616 180.128 202.905C174.839 208.195 174.839 216.78 180.128 222.069ZM232.979 274.933C238.28 280.218 246.847 280.218 252.149 274.933C257.444 269.647 257.444 261.062 252.149 255.773C246.848 250.484 238.281 250.484 232.979 255.773C227.701 261.057 227.69 269.636 232.979 274.933Z" fill="#32DE84"/>
</g>
<defs>
<clipPath id="clip0_1601_1923">
<rect width="548.291" height="548.291" fill="white"/>
</clipPath>
</defs>
</svg>
