<svg width="98" height="98" viewBox="0 0 98 98" fill="none" xmlns="http://www.w3.org/2000/svg">
<path d="M75.644 52.1075C75.5401 39.7207 85.7971 33.7003 86.2476 33.4235C80.426 24.9811 71.4165 23.8047 68.2631 23.7009C60.709 22.9051 53.3627 28.2335 49.5163 28.2335C45.6006 28.2335 39.6404 23.8047 33.2644 23.9085C25.0519 24.0469 17.3244 28.7871 13.1315 36.1915C4.43385 51.2425 10.9138 73.3865 19.265 85.5657C23.4579 91.5169 28.3092 98.1947 34.7198 97.9525C40.9572 97.7103 43.3136 93.9735 50.8331 93.9735C58.318 93.9735 60.501 97.9525 67.0156 97.8141C73.7382 97.7103 77.9311 91.8283 81.9854 85.8079C86.802 78.9917 88.7426 72.2447 88.8119 71.8987C88.6386 71.8295 75.7826 66.9163 75.644 52.1075Z" fill="white"/>
<path d="M63.3423 15.7084C66.7036 11.5218 68.9906 5.8128 68.3669 0C63.5156 0.2076 57.4168 3.3562 53.9169 7.4736C50.8329 11.1066 48.0607 17.0232 48.7538 22.5938C54.2288 23.009 59.8424 19.8258 63.3423 15.7084Z" fill="white"/>
</svg>
