<svg width="142" height="142" viewBox="0 0 142 142" fill="none" xmlns="http://www.w3.org/2000/svg">
<path fill-rule="evenodd" clip-rule="evenodd" d="M101.533 0H39.7535C10.6465 0 0 10.6479 0 39.772V101.587C0 130.707 10.6465 141.364 39.7535 141.364H101.513C130.615 141.364 141.281 130.707 141.281 101.587V39.772C141.281 10.6479 130.63 0 101.528 0" fill="#C8102E"/>
<path d="M27.9788 70.6895H31.7247V89.1706H27.9788V81.6697H19.5154V89.1706H15.7646V70.6895H19.5154V78.1465H27.9788V70.6895ZM49.0912 81.2495C49.0912 84.2596 47.5967 85.8624 44.8912 85.8624C42.1856 85.8624 40.6667 84.2107 40.6667 81.1224V70.7042H36.9209V81.2495C36.9209 86.4488 39.8072 89.4296 44.8423 89.4296C49.8774 89.4296 52.837 86.3951 52.837 81.1224V70.6895H49.0912V81.2495ZM92.4 83.38L88.2049 70.6749H85.1477L80.9574 83.38L76.8747 70.6749H72.8847L79.3263 89.1462H82.4274L86.6226 77.0128L90.8274 89.1462H93.953L100.38 70.6749H96.473L92.4 83.38ZM107.095 81.2006H113.932V77.8386H107.095V74.0515H116.99V70.6846H103.383V89.1413H117.331V85.794H107.076L107.095 81.2006ZM121.815 89.1267H125.517V70.6895H121.815V89.1267ZM60.2456 85.2907L58.5656 89.1413H54.7367L62.8779 70.67H66.1793L74.2863 89.1413H70.3793L68.7188 85.2907H60.2456ZM61.6374 81.9629H67.3026L64.4553 75.3855L61.6374 81.9629Z" fill="white"/>
<path d="M70.6626 47.1606C64.4284 47.1528 58.4517 44.6714 54.0434 40.2605C49.6352 35.8497 47.1552 29.8695 47.1475 23.6316H50.4733C50.4733 28.9906 52.6009 34.1301 56.388 37.9195C60.1752 41.7088 65.3116 43.8377 70.6675 43.8377C76.0233 43.8377 81.1598 41.7088 84.9469 37.9195C88.7341 34.1301 90.8616 28.9906 90.8616 23.6316H94.1826C94.1748 29.8703 91.6942 35.8512 87.2849 40.2622C82.8755 44.6732 76.8976 47.1541 70.6626 47.1606Z" fill="white"/>
</svg>
